<?xml version="1.0" encoding="UTF-8" standalone="no"?>
<svg
   xmlns:dc="http://purl.org/dc/elements/1.1/"
   xmlns:cc="http://creativecommons.org/ns#"
   xmlns:rdf="http://www.w3.org/1999/02/22-rdf-syntax-ns#"
   xmlns:svg="http://www.w3.org/2000/svg"
   xmlns="http://www.w3.org/2000/svg"
   xmlns:sodipodi="http://sodipodi.sourceforge.net/DTD/sodipodi-0.dtd"
   xmlns:inkscape="http://www.inkscape.org/namespaces/inkscape"
   version="1.1"
   id="svg3336"
   height="106.3125"
   width="641.22162"
   sodipodi:docname="crossbarfx_black.svg"
   inkscape:version="0.92.3 (2405546, 2018-03-11)"
   inkscape:export-filename="/home/oberstet/scm/crossbario/crossbarfx/docs/_static/crossbarfx.png"
   inkscape:export-xdpi="96"
   inkscape:export-ydpi="96">
  <sodipodi:namedview
     pagecolor="#ffffff"
     bordercolor="#666666"
     borderopacity="1"
     objecttolerance="10"
     gridtolerance="10"
     guidetolerance="10"
     inkscape:pageopacity="0"
     inkscape:pageshadow="2"
     inkscape:window-width="2493"
     inkscape:window-height="1385"
     id="namedview22"
     showgrid="false"
     inkscape:zoom="1.3786185"
     inkscape:cx="156.47554"
     inkscape:cy="94.035695"
     inkscape:window-x="67"
     inkscape:window-y="27"
     inkscape:window-maximized="1"
     inkscape:current-layer="svg3336" />
  <metadata
     id="metadata3367">
    <rdf:RDF>
      <cc:Work
         rdf:about="">
        <dc:format>image/svg+xml</dc:format>
        <dc:type
           rdf:resource="http://purl.org/dc/dcmitype/StillImage" />
        <dc:title />
      </cc:Work>
    </rdf:RDF>
  </metadata>
  <desc
     id="desc3338">C:\idmanagement.org\tavendo\logo_CB\logo_CB_work_01.dxf - scale = 1.000000, origin = (0.000000, 0.000000), auto = False</desc>
  <defs
     id="defs3340" />
  <g
     id="g53">
    <path
       id="path3357"
       d="m 2.00023,2 v 21.55078 h 28.591856 l 18.95508,18.95508 -7.25391,7.2539 L 26.342082,33.80859 H 2.00023 V 72.48047 H 27.029586 L 75.959276,23.55078 H 104.31084 V 2 Z M 80.209276,33.80859 31.279586,82.73828 H 2.00023 V 104.3125 H 104.31084 V 82.73828 H 75.271776 l -18.48438,-18.48633 7.25391,-7.25391 15.48047,15.48243 H 104.31084 V 33.80859 Z"
       style="fill:#ffff00;fill-opacity:1;stroke:none;stroke-width:0.45117018;stroke-linecap:round"
       inkscape:connector-curvature="0" />
    <path
       id="path3359"
       d="M 2,82.73786 H 31.279506 L 80.209236,33.80814 H 104.31139 V 23.55002 H 75.960186 L 27.030456,72.47975 H 2 Z"
       style="fill:#333333;fill-opacity:1;stroke:none;stroke-width:0.45117018;stroke-linecap:round"
       inkscape:connector-curvature="0" />
    <path
       id="path3361"
       d="m 56.786776,64.2522 7.25359,-7.25358 15.48113,15.48113 H 104.31139 V 82.73786 H 75.272436 Z"
       style="fill:#333333;fill-opacity:1;stroke:none;stroke-width:0.45117018;stroke-linecap:round"
       inkscape:connector-curvature="0" />
    <path
       id="path3363"
       d="M 26.342712,33.80814 H 2 V 23.55002 h 28.591766 l 18.95592,18.95592 -7.25358,7.25359 z"
       style="fill:#333333;fill-opacity:1;stroke:none;stroke-width:0.45117018;stroke-linecap:round;stroke-opacity:1"
       inkscape:connector-curvature="0" />
    <g
       transform="translate(-73.629834,309.77923)"
       id="text3369"
       style="font-style:normal;font-variant:normal;font-weight:normal;font-stretch:normal;font-size:91.31777191px;line-height:125%;font-family:Play;-inkscape-font-specification:Play;text-align:start;writing-mode:lr-tb;text-anchor:start;opacity:1;fill:#333333;fill-opacity:1;stroke:none;stroke-width:0.0662799;stroke-linecap:butt;stroke-linejoin:round;stroke-miterlimit:4;stroke-dasharray:none;stroke-opacity:1">
      <path
         id="path5240"
         style="font-style:normal;font-variant:normal;font-weight:bold;font-stretch:normal;font-family:Play;-inkscape-font-specification:'Play Bold';fill:#333333;fill-opacity:1;stroke:none;stroke-width:0.0662799"
         d="m 234.61602,-226.08934 q -4.01798,0 -7.2141,-0.36527 -3.1048,-0.36527 -6.84883,-1.36977 -4.20062,-1.09581 -6.94015,-2.83085 -2.73954,-1.82635 -4.56589,-5.02248 -1.91768,-3.19612 -1.91768,-7.57937 v -26.02557 q 0,-17.89828 27.48665,-17.89828 7.03147,0 18.81146,2.00899 v 10.68418 q -10.59286,-2.5569 -18.62882,-2.5569 -3.37876,0 -5.29643,0.18264 -1.82636,0.18263 -3.83535,0.91318 -4.29193,1.46108 -4.29193,6.48356 v 25.2037 q 0,8.03597 14.70216,8.03597 6.30092,0 17.71565,-2.64822 v 10.7755 q -9.77101,2.00899 -19.17674,2.00899 z"
         inkscape:connector-curvature="0" />
      <path
         id="path5242"
         style="font-style:normal;font-variant:normal;font-weight:bold;font-stretch:normal;font-family:Play;-inkscape-font-specification:'Play Bold';fill:#333333;fill-opacity:1;stroke:none;stroke-width:0.0662799"
         d="m 262.43655,-271.20032 h 12.69317 v 7.76201 q 0,-2.10031 1.73504,-4.1093 1.73504,-2.00899 4.38325,-3.28744 2.73954,-1.27845 5.38775,-1.27845 h 4.74853 v 11.04945 h -4.56589 q -5.6617,0 -8.40124,1.73504 -2.64821,1.73504 -2.64821,5.75302 v 26.57347 h -13.3324 z"
         inkscape:connector-curvature="0" />
      <path
         id="path5244"
         style="font-style:normal;font-variant:normal;font-weight:bold;font-stretch:normal;font-family:Play;-inkscape-font-specification:'Play Bold';fill:#333333;fill-opacity:1;stroke:none;stroke-width:0.0662799"
         d="m 319.82835,-226.08934 q -4.1093,0 -6.75752,-0.27395 -2.64821,-0.27396 -5.6617,-1.09582 -3.28744,-0.91317 -5.29643,-2.55689 -2.00899,-1.73504 -3.37876,-4.83985 -1.36976,-3.01348 -1.36976,-7.30542 v -13.05844 q 0,-4.38325 1.36976,-7.67069 1.36977,-3.28744 3.56139,-5.1138 1.91768,-1.5524 5.02248,-2.55689 3.19612,-1.09582 6.20961,-1.36977 3.47008,-0.18264 6.30093,-0.18264 4.20061,0 6.66619,0.27396 2.5569,0.18263 5.57039,1.09581 3.28744,1.0045 5.29643,2.73953 2.10031,1.73504 3.56139,4.93116 1.36977,3.28744 1.36977,7.85333 v 13.05844 q 0,4.1093 -1.36977,7.21411 -1.27845,3.1048 -3.37876,4.83984 -1.82635,1.5524 -5.02247,2.5569 -3.10481,0.91317 -6.11829,1.18713 -2.73954,0.27395 -6.57488,0.27395 z m 0,-8.30992 q 3.74403,0 5.6617,-0.5479 1.91767,-0.63923 2.64821,-1.91768 0.82186,-1.27845 0.82186,-3.74403 v -16.71115 q 0,-3.65271 -1.91767,-5.11379 -1.91767,-1.46109 -7.2141,-1.46109 -5.29643,0 -7.21411,1.46109 -1.91767,1.46108 -1.91767,5.11379 v 16.71115 q 0,2.46558 0.73054,3.74403 0.82186,1.27845 2.73954,1.91768 1.91767,0.5479 5.6617,0.5479 z"
         inkscape:connector-curvature="0" />
      <path
         id="path5246"
         style="font-style:normal;font-variant:normal;font-weight:bold;font-stretch:normal;font-family:Play;-inkscape-font-specification:'Play Bold';fill:#333333;fill-opacity:1;stroke:none;stroke-width:0.0662799"
         d="m 369.21271,-226.08934 q -7.12278,0 -17.44169,-1.36977 v -8.85782 q 12.69317,1.91767 17.62433,1.91767 4.20062,0 6.20961,-0.82186 2.00899,-0.82186 2.00899,-3.01348 v -2.73954 q 0,-2.28294 -1.27845,-3.19612 -1.27845,-1.00449 -5.02248,-1.00449 H 365.56 q -7.03147,0 -10.86681,-2.73954 -3.83535,-2.83085 -3.83535,-8.2186 v -5.38775 q 0,-5.75302 5.47907,-8.12728 5.47906,-2.46558 16.52851,-2.46558 4.38326,0 15.70666,0.82186 v 8.49256 q -14.24557,-1.09582 -16.07193,-1.09582 -5.38775,0 -7.03147,0.73054 -1.46108,0.82186 -1.46108,3.01349 v 2.37426 q 0,1.18713 1.18713,2.10031 1.18713,0.82186 3.47008,0.82186 h 5.84433 q 16.25457,0 16.25457,10.59286 v 5.57039 q 0,3.19612 -1.18713,5.57038 -1.18713,2.37426 -3.10481,3.74403 -1.82635,1.27845 -4.74852,2.00899 -2.83085,0.73054 -5.93566,1.0045 -2.83085,0.27395 -6.57488,0.27395 z"
         inkscape:connector-curvature="0" />
      <path
         id="path5248"
         style="font-style:normal;font-variant:normal;font-weight:bold;font-stretch:normal;font-family:Play;-inkscape-font-specification:'Play Bold';fill:#333333;fill-opacity:1;stroke:none;stroke-width:0.0662799"
         d="m 417.19022,-226.08934 q -7.12278,0 -17.44169,-1.36977 v -8.85782 q 12.69317,1.91767 17.62433,1.91767 4.20061,0 6.20961,-0.82186 2.00899,-0.82186 2.00899,-3.01348 v -2.73954 q 0,-2.28294 -1.27845,-3.19612 -1.27845,-1.00449 -5.02248,-1.00449 h -5.75302 q -7.03147,0 -10.86681,-2.73954 -3.83535,-2.83085 -3.83535,-8.2186 v -5.38775 q 0,-5.75302 5.47907,-8.12728 5.47906,-2.46558 16.52851,-2.46558 4.38326,0 15.70666,0.82186 v 8.49256 q -14.24557,-1.09582 -16.07193,-1.09582 -5.38775,0 -7.03147,0.73054 -1.46108,0.82186 -1.46108,3.01349 v 2.37426 q 0,1.18713 1.18713,2.10031 1.18713,0.82186 3.47008,0.82186 h 5.84433 q 16.25457,0 16.25457,10.59286 v 5.57039 q 0,3.19612 -1.18714,5.57038 -1.18713,2.37426 -3.1048,3.74403 -1.82635,1.27845 -4.74852,2.00899 -2.83085,0.73054 -5.93566,1.0045 -2.83085,0.27395 -6.57488,0.27395 z"
         inkscape:connector-curvature="0" />
      <path
         id="path5250"
         style="font-style:normal;font-variant:normal;font-weight:bold;font-stretch:normal;font-family:Play;-inkscape-font-specification:'Play Bold';fill:#333333;fill-opacity:1;stroke:none;stroke-width:0.0662799"
         d="m 471.01205,-226.08934 q -8.40123,0 -13.33239,-1.73504 -4.83984,-1.73504 -6.94015,-5.29643 -2.10031,-3.65271 -2.10031,-9.58836 v -48.21579 h 13.33239 v 24.10789 q 1.18713,-3.01348 4.38326,-4.1093 3.19612,-1.18713 9.95363,-1.18713 5.75302,0 9.2231,0.91318 3.56139,0.91318 5.38775,2.92217 1.73503,2.00899 2.37426,4.47457 0.63922,2.37426 0.63922,6.57488 v 14.51953 q 0,8.94914 -5.38775,12.78448 -5.38774,3.83535 -17.53301,3.83535 z m 0.18264,-8.30992 q 3.92666,0 5.93565,-0.5479 2.00899,-0.54791 2.73954,-1.91768 0.73054,-1.36976 0.73054,-4.1093 v -16.34588 q 0,-3.01348 -0.63923,-4.29193 -0.63922,-1.36977 -2.55689,-1.82636 -1.91768,-0.45659 -6.30093,-0.45659 -3.74403,0 -5.75302,0.63923 -1.91767,0.63922 -2.64821,2.00899 -0.73055,1.36976 -0.73055,3.92666 v 16.34588 q 0,2.73954 0.63923,4.1093 0.73054,1.36977 2.64821,1.91768 2.00899,0.5479 5.93566,0.5479 z"
         inkscape:connector-curvature="0" />
      <path
         id="path5252"
         style="font-style:normal;font-variant:normal;font-weight:bold;font-stretch:normal;font-family:Play;-inkscape-font-specification:'Play Bold';fill:#333333;fill-opacity:1;stroke:none;stroke-width:0.0662799"
         d="m 516.79651,-226.08934 q -6.20961,0 -9.31442,-1.09581 -3.01348,-1.18713 -4.29193,-4.1093 -1.18713,-3.01349 -1.18713,-8.94914 0,-5.29644 1.27845,-8.30992 1.36976,-3.01349 4.29193,-4.29194 3.01349,-1.36976 8.2186,-1.36976 h 14.97612 v -3.01349 q 0,-2.83085 -0.82186,-4.20062 -0.73055,-1.36976 -2.83085,-1.91767 -2.009,-0.54791 -6.1183,-0.54791 -5.6617,0 -15.52402,1.09582 v -8.40124 q 7.21411,-0.91318 16.89379,-0.91318 8.49255,0 13.05844,1.27845 4.65721,1.27845 6.6662,4.38325 2.00899,3.10481 2.00899,9.04046 v 30.40882 h -13.05844 v -4.01798 q -1.5524,2.64822 -4.20062,3.74403 -2.64821,1.18713 -10.04495,1.18713 z m 5.20511,-8.30992 q 4.01798,0 5.75302,-0.27395 1.27845,-0.18264 1.73504,-0.54791 0.5479,-0.36527 0.91318,-1.18713 0.36527,-0.63922 0.36527,-1.91767 v -8.58387 h -9.13178 q -3.10481,0 -4.38325,0.45659 -1.27845,0.36527 -1.73504,1.64372 -0.45659,1.18713 -0.45659,4.29193 0,3.01349 0.45659,4.20062 0.45659,1.18713 1.73504,1.5524 1.36976,0.36527 4.74852,0.36527 z"
         inkscape:connector-curvature="0" />
      <path
         id="path5254"
         style="font-style:normal;font-variant:normal;font-weight:bold;font-stretch:normal;font-family:Play;-inkscape-font-specification:'Play Bold';fill:#333333;fill-opacity:1;stroke:none;stroke-width:0.0662799"
         d="m 555.83056,-271.20032 h 12.69317 v 7.76201 q 0,-2.10031 1.73504,-4.1093 1.73503,-2.00899 4.38325,-3.28744 2.73953,-1.27845 5.38775,-1.27845 h 4.74852 v 11.04945 h -4.56589 q -5.6617,0 -8.40123,1.73504 -2.64822,1.73504 -2.64822,5.75302 v 26.57347 h -13.33239 z"
         inkscape:connector-curvature="0" />
      <path
         id="path5256"
         style="fill:#333333;fill-opacity:1;stroke:none;stroke-width:0.0662799"
         d="m 614.9089,-286.26775 h 40.72772 v 6.20961 h -31.8699 v 19.35936 h 28.85642 v 6.20961 h -28.85642 v 27.48665 h -8.85782 z"
         inkscape:connector-curvature="0" />
      <path
         id="path5258"
         style="fill:#333333;fill-opacity:1;stroke:none;stroke-width:0.0662799"
         d="m 680.98156,-257.2287 -20.91177,-29.03905 h 10.13627 l 15.79798,22.92076 15.79797,-22.92076 h 10.13628 l -20.91177,29.03905 21.82494,30.22618 h -10.13627 l -16.71115,-24.10789 -16.71115,24.10789 h -10.13628 z"
         inkscape:connector-curvature="0" />
    </g>
  </g>
</svg>
