<?xml version="1.0" encoding="UTF-8"?>
<svg id="e" version="1.1" viewBox="0 0 131.56 65.675" xml:space="preserve" xmlns="http://www.w3.org/2000/svg"><defs id="f"><clipPath id="d"><path id="g" d="m453.54 805.04h102.05v-49.34h-102.05v49.34z" clip-rule="evenodd"/></clipPath><clipPath id="c"><path id="h" d="m0 0h595.28v841.89h-595.28v-841.89z"/></clipPath><clipPath id="b"><path id="i" d="m453.54 805.04h102.05v-49.34h-102.05v49.34z" clip-rule="evenodd"/></clipPath><clipPath id="a"><path id="j" d="m0 0h595.28v841.89h-595.28v-841.89z"/></clipPath></defs><g id="k" transform="matrix(1.25 0 0 -1.25 -564.93 1008.3)"><g id="l"/><g id="m"/><g id="n"/><g id="o"/><g id="p"/><g id="q"/><g id="r"/><g id="s"/><g id="t"/><g id="u"/><g id="v"/><g id="w"/><g id="x"/><g id="y"/><g id="z"/><g id="aa"/><g id="ab"/><g id="ac"/><g id="ad"/><g id="ae"/><g id="af"/><g id="ag"/><g id="ah"/><g id="ai"/><g id="aj"><g id="ak" clip-path="url(#d)"><g id="al"><g id="am"><g id="an" clip-path="url(#c)"><g id="ao"><g id="ap" clip-path="url(#b)"><g id="aq"><g id="ar"><g id="as" clip-path="url(#a)"><g id="at"><g id="au" transform="translate(453.54 805.04)"><path id="av" d="m0 0h54.609v-49.34h-54.609v49.34z" fill="#b3b3b3" fill-rule="evenodd"/></g></g><g id="aw"><g id="ax" transform="translate(461.19 791.96)"><path id="ay" d="m0-23.086h11.42l19.085 19.085h9.4009v4.0011h-11.058l-19.085-19.085h-9.763v-4.0012z" fill="#ff0" fill-rule="evenodd"/></g></g><g id="az"><g id="ba" transform="translate(482.56 778.91)"><path id="bb" d="m0-2.8292 2.8292 2.8292 6.0383-6.0383h9.6692v-4.0012h-11.326l-7.2102 7.2103z" fill="#ff0" fill-rule="evenodd"/></g></g><g id="bc"><g id="bd" transform="translate(461.19 791.96)"><path id="be" d="m9.4947-4.0011h-9.4947v4.0011h11.152l7.3936-7.3937-2.8291-2.8291-6.2218 6.2217z" fill="#ff0" fill-rule="evenodd"/></g></g><g id="bf"><g id="bg" transform="translate(498.34 792.03)"><path id="bh" d="m9.9906-7.9734 4.3361 7.9734h5.4797l-6.7345-11.468 6.9093-11.658h-5.5433l-4.4473 8.1005-4.4473-8.1005h-5.5432l6.9092 11.658-6.7345 11.468h5.4797l4.3361-7.9734z" fill="#333" fill-rule="evenodd"/></g></g><g id="bi"><g id="bj" transform="translate(519.14 792.03)"><path id="bk" d="m0-23.126v23.126h8.1004c2.806 0 4.9344-0.54004 6.3852-1.6201 1.4506-1.0695 2.176-2.6419 2.176-4.7172 0-1.1331-0.2913-2.1338-0.8736-3.002-0.5824-0.85772-1.3925-1.4877-2.4302-1.8901 1.186-0.2965 2.1178-0.8947 2.7955-1.7948 0.6883-0.9001 1.0324-2.0013 1.0324-3.3037 0-2.2236-0.7095-3.9073-2.1284-5.0509s-3.4414-1.726-6.0674-1.7471h-8.9899zm4.765 10.07v-6.2421h4.082c1.1224 0 1.996 0.2647 2.6208 0.7942 0.6353 0.54 0.953 1.2813 0.953 2.2236 0 2.1178-1.096 3.1926-3.2879 3.2243h-4.3679zm0 3.3673h3.5261c2.4037 0.04234 3.6056 1.0007 3.6056 2.8749 0 1.0483-0.3071 1.8001-0.9213 2.2554-0.6035 0.46589-1.5618 0.69886-2.8748 0.69886h-3.3355v-5.8292z" fill="#333" fill-rule="evenodd"/></g></g><g id="bl"><g id="bm" transform="translate(537.58 792.03)"><path id="bn" d="m8.5611-14.66h-3.796v-8.4657h-4.765v23.126h8.5928c2.732 0 4.8392-0.60886 6.3216-1.8266s2.2237-2.9384 2.2237-5.1621c0-1.5777-0.3442-2.896-1.0324-3.9549-0.6777-1.0483-1.7101-1.8848-3.0973-2.5096l5.0033-9.4505v-0.2223h-5.1145l-4.3361 8.4657zm-3.796 3.8597h3.8437c1.1966 0 2.123 0.3018 2.7795 0.9053 0.6565 0.61418 0.9848 1.456 0.9848 2.5254 0 1.0907-0.3124 1.9484-0.9371 2.5731-0.6142 0.62476-1.5619 0.93712-2.8432 0.93712h-3.8278v-6.941z" fill="#333" fill-rule="evenodd"/></g></g></g></g></g></g></g></g></g></g></g></g></g></svg>
