<?xml version="1.0" encoding="UTF-8"?>
<svg id="e" version="1.1" viewBox="0 0 181.59 89.688" xml:space="preserve" xmlns="http://www.w3.org/2000/svg"><defs id="f"><clipPath id="d"><path id="g" d="m441.22 802.44h142.17v-68.65h-142.17v68.65z" clip-rule="evenodd"/></clipPath><clipPath id="c"><path id="h" d="m0 0h595.28v841.89h-595.28v-841.89z"/></clipPath><clipPath id="b"><path id="i" d="m441.22 733.69h142.07v68.65h-142.07v-68.65z" clip-rule="evenodd"/></clipPath><clipPath id="a"><path id="j" d="m0 0h595.28v841.89h-595.28v-841.89z"/></clipPath></defs><g id="k" transform="matrix(1.25 0 0 -1.25 -543.6 1966.7)"><g id="l" transform="translate(-4.7446 769.43)"><g id="m" clip-path="url(#d)"><g id="n"><g id="o"><g id="p" clip-path="url(#c)"><g id="q"><g id="r" clip-path="url(#b)"><g id="s"><g id="t"><g id="u" clip-path="url(#a)"><g id="v"><g id="w" transform="translate(441.22 802.44)"><path id="x" d="m38.099-68.65h-38.099v68.65h76.098v-68.65h-37.999z" fill="#333" fill-rule="evenodd"/></g></g><g id="y"><g id="z" transform="translate(451.95 784.2)"><path id="aa" d="m0-32.07h15.841l26.569 26.558h13.134v5.5121h-15.44l-26.569-26.558h-13.535v-5.5121z" fill="#ff0" fill-rule="evenodd"/></g></g><g id="ab"><g id="ac" transform="translate(481.63 766.06)"><path id="ad" d="m0-3.9086 3.9102 3.9086 8.4219-8.4185h13.535v-5.512h-15.841l-10.026 10.022z" fill="#ff0" fill-rule="evenodd"/></g></g><g id="ae"><g id="af" transform="translate(451.95 784.2)"><path id="ag" d="m13.134-5.5121h-13.134v5.5121h15.44l10.327-10.222-3.9102-4.0088-8.7227 8.7191z" fill="#ff0" fill-rule="evenodd"/></g></g><g id="ah"><g id="ai" transform="translate(503.59 784.3)"><path id="aj" d="m19.952 0h7.6199l-9.3243-15.935 9.6251-16.236h-7.7201l-6.2162 11.325-6.1159-11.325h-7.8204l9.6251 16.236-9.3243 15.935h7.6198l6.0157-11.024 6.0156 11.024z" fill="#fff" fill-rule="evenodd"/></g></g><g id="ak"><g id="al" transform="translate(532.56 784.3)"><path id="am" d="m0 0h11.33c3.9102 0 6.8177-0.70154 8.9232-2.2048 2.0052-1.5033 3.0079-3.7081 3.0079-6.6145 0-1.5033-0.4011-2.9064-1.2032-4.109-0.8021-1.2027-2.0052-2.1047-3.4089-2.706 1.6042-0.4009 2.9076-1.2026 3.9102-2.5055 0.9024-1.2026 1.4037-2.7059 1.4037-4.5099 0-3.1068-1.0026-5.5121-2.9076-7.0153-2.0052-1.6036-4.8125-2.5055-8.5222-2.5055h-12.533v32.17zm6.7175-26.859h5.6146c1.6042 0 2.8073 0.4009 3.7097 1.1024 0.8021 0.8018 1.3034 1.804 1.3034 3.1068 0 3.0066-1.504 4.5099-4.6121 4.5099h-6.0156v-8.7191zm4.8125 13.43c3.4089 0.1002 5.1133 1.403 5.1133 4.0087 0 1.4031-0.5013 2.5055-1.3034 3.1068-0.9023 0.70153-2.2057 1.0022-4.0104 1.0022h-4.612v-8.1178h4.8125z" fill="#fff" fill-rule="evenodd"/></g></g><g id="an"><g id="ao" transform="translate(558.23 784.3)"><path id="ap" d="m6.7175-20.345v-11.826h-6.7175v32.17h12.031c3.8099 0 6.7175-0.80176 8.823-2.5055 2.0052-1.7037 3.0078-4.109 3.0078-7.2158 0-2.1046-0.401-4.0088-1.4036-5.5121-0.9024-1.4031-2.4063-2.6057-4.3113-3.5077l7.0183-13.129v-0.3006h-7.2188l-6.0156 11.826h-5.2136zm5.3138 5.3116c1.7045 0 2.9076 0.5011 3.8099 1.3029 1.0027 0.8018 1.4037 2.0044 1.4037 3.5077 0 1.5033-0.401 2.7059-1.3034 3.6079-0.8021 0.80175-2.2057 1.3028-3.9102 1.3028h-5.3138v-9.7214h5.3138z" fill="#fff" fill-rule="evenodd"/></g></g></g></g></g></g></g></g></g></g></g></g></g></svg>
